<svg xmlns="http://www.w3.org/2000/svg" xml:space="preserve" width="2048" height="2048" style="shape-rendering:geometricPrecision;text-rendering:geometricPrecision;image-rendering:optimizeQuality;fill-rule:evenodd;clip-rule:evenodd"><defs><style>.fil0{fill:#212121;fill-rule:nonzero}</style></defs><g id="Layer_x0020_1"><g id="_250933224"><path id="_250933128" class="fil0" d="M500.809 405.09h279.123c10.94 0 20.598 5.493 26.37 13.87L929.24 568.277h720.037c17.673 0 32.001 14.328 32.001 32V942.44c0 17.673-14.328 32.001-32 32.001H398.727c-17.673 0-32.001-14.328-32.001-32V539.177c0-36.908 15.075-70.438 39.362-94.725 24.287-24.287 57.817-39.363 94.723-39.363zm264.173 64.002H500.809c-19.24 0-36.756 7.894-49.473 20.611-12.717 12.717-20.611 30.233-20.611 49.474V910.44h1186.55V632.278H914.288v-.001c-9.228-.005-18.382-3.98-24.704-11.66l24.704-20.34-24.625 20.25L764.98 469.091z"/><path id="_250933008" class="fil0" d="M521.059 692.952h1005.88c17.673 0 32 14.328 32 32v217.489c0 17.673-14.327 32-32 32H521.059c-17.673 0-32-14.327-32-32V724.953c0-17.673 14.327-32.001 32-32.001zm973.881 64.002H553.06V910.44h941.88V756.954z"/><path id="_250932672" class="fil0" d="M703.179 801.695c-17.673 0-32 14.328-32 32 0 17.674 14.327 32.002 32 32.002h641.64c17.673 0 32-14.328 32-32.001s-14.327-32.001-32-32.001h-641.64z"/><path id="_250933032" class="fil0" d="M507.467 1578.91h1033.07c18.326 0 33.19-7.246 44.824-18.88 15.841-15.84 26.686-39.514 32.919-65.362l108.743-450.981c.665-2.758.98-5.768.98-8.973 0-12.268-6.246-24.138-16.011-34.026-11.304-11.448-26.772-20.005-43.227-23.972l7.375-31-7.5 31.109a32.35 32.35 0 0 1-2.113-.587 83.116 83.116 0 0 0-17.248-1.793H398.729c-6.75 0-13.262.78-19.364 2.241l.007.029-.025.006.025.102c-.725.175-1.452.322-2.176.444-15.74 4.198-30.394 12.502-41.178 23.42-9.765 9.89-16.01 21.76-16.01 34.03 0 3.205.314 6.214.978 8.97l108.743 450.98c6.233 25.85 17.08 49.525 32.919 65.363 11.634 11.634 26.498 18.88 44.824 18.88zm1033.07 64.002H507.467c-37.043 0-66.885-14.442-90.075-37.631-24.569-24.57-40.842-59.008-49.668-95.613L258.98 1058.687c-2.024-8.388-2.98-16.387-2.98-23.97 0-30.188 13.462-57.463 34.511-78.78 18.88-19.114 44.188-33.499 71.038-40.514a32.243 32.243 0 0 1 2.817-.818l7.5 31.11-7.375-31.001c11.547-2.784 23.084-4.271 34.232-4.271h1250.55c10.312 0 20.915 1.253 31.517 3.613.947.14 1.895.321 2.844.55l-.025.103.025.006-.007.03c27.953 6.761 54.374 21.463 73.86 41.193 21.05 21.315 34.512 48.588 34.512 78.776 0 7.585-.96 15.587-2.981 23.973l-108.743 450.98c-8.827 36.606-25.099 71.044-49.67 95.613-23.19 23.19-53.03 37.632-90.074 37.632z"/></g></g><path style="fill:none" d="M0 0h2048v2048H0z"/></svg>